<svg xmlns="http://www.w3.org/2000/svg" width="64" height="64" viewBox="0 0 64 64">
  <rect width="64" height="64" rx="12" fill="#25AA60" />
  <path d="M20 22C20 20.8954 20.8954 20 22 20H42C43.1046 20 44 20.8954 44 22V26C44 27.1046 43.1046 28 42 28H22C20.8954 28 20 27.1046 20 26V22Z" fill="white"/>
  <path d="M20 32C20 30.8954 20.8954 30 22 30H34C35.1046 30 36 30.8954 36 32V36C36 37.1046 35.1046 38 34 38H22C20.8954 38 20 37.1046 20 36V32Z" fill="white"/>
  <path d="M28 42C28 40.8954 28.8954 40 30 40H42C43.1046 40 44 40.8954 44 42V46C44 47.1046 43.1046 48 42 48H30C28.8954 48 28 47.1046 28 46V42Z" fill="white"/>
</svg>